<svg width="21" height="21" viewBox="0 0 21 21" fill="none" xmlns="http://www.w3.org/2000/svg">
<path d="M19.2797 1.3873C20.3547 2.46229 20.3547 4.2052 19.2797 5.28019L18.7841 5.77574C18.6399 5.7445 18.4581 5.69694 18.251 5.62509C17.6967 5.43277 16.9682 5.06932 16.2829 4.38406C15.5977 3.69879 15.2342 2.97028 15.0419 2.41595C14.9701 2.20886 14.9225 2.02714 14.8913 1.88285L15.3868 1.3873C16.4618 0.312306 18.2047 0.312306 19.2797 1.3873Z" fill="#4A4EED"/>
<path d="M12.666 11.8939C12.262 12.2979 12.06 12.4999 11.8373 12.6736C11.5745 12.8786 11.2902 13.0543 10.9894 13.1976C10.7344 13.3191 10.4634 13.4095 9.92136 13.5902L7.06303 14.5429C6.79628 14.6319 6.5022 14.5624 6.30338 14.3636C6.10456 14.1648 6.03514 13.8707 6.12405 13.604L7.07683 10.7456C7.25751 10.2036 7.34785 9.93257 7.46938 9.67757C7.61273 9.37677 7.78843 9.09248 7.99337 8.82974C8.16709 8.607 8.3691 8.405 8.77311 8.00098L13.6892 3.0849C13.953 3.77909 14.4152 4.63769 15.2223 5.44472C16.0293 6.25175 16.8879 6.71402 17.5821 6.9778L12.666 11.8939Z" fill="#4A4EED"/>
<path d="M18.6215 19.1166C20.0859 17.6521 20.0859 15.2951 20.0859 10.5811C20.0859 9.0328 20.0859 7.73879 20.0341 6.64715L13.6719 13.0093C13.3207 13.3607 13.0568 13.6248 12.7598 13.8564C12.4111 14.1283 12.0339 14.3615 11.6347 14.5517C11.2948 14.7137 10.9406 14.8317 10.4692 14.9887L7.53737 15.966C6.73162 16.2345 5.84328 16.0248 5.24272 15.4243C4.64215 14.8237 4.43244 13.9354 4.70103 13.1296L5.67829 10.1978C5.83529 9.72641 5.95326 9.37223 6.11529 9.03224C6.30552 8.63309 6.53866 8.25586 6.8106 7.90721C7.04223 7.61023 7.30626 7.34633 7.65767 6.99509L14.0198 0.632938C12.9282 0.581055 11.6342 0.581055 10.0859 0.581055C5.37189 0.581055 3.01487 0.581055 1.5504 2.04552C0.0859375 3.50999 0.0859375 5.86701 0.0859375 10.5811C0.0859375 15.2951 0.0859375 17.6521 1.5504 19.1166C3.01487 20.5811 5.37189 20.5811 10.0859 20.5811C14.8 20.5811 17.157 20.5811 18.6215 19.1166Z" fill="#4A4EED"/>
</svg>
