<svg width="24" height="24" viewBox="0 0 24 24" fill="none" xmlns="http://www.w3.org/2000/svg">
<rect opacity="0.7" x="0.306641" y="0.307617" width="23.0769" height="23.0769" rx="7" fill="#DDDDDD"/>
<path d="M9.92181 11.8684C9.92181 10.853 10.7834 10.0299 11.8462 10.0299C12.909 10.0299 13.7705 10.853 13.7705 11.8684C13.7705 12.8838 12.909 13.707 11.8462 13.707C10.7834 13.707 9.92181 12.8838 9.92181 11.8684Z" fill="black"/>
<path fill-rule="evenodd" clip-rule="evenodd" d="M7.97492 7.49064C7.97492 6.07249 9.17822 4.92285 10.6626 4.92285H13.0297C14.5141 4.92285 15.7174 6.07249 15.7174 7.49064C15.7174 7.50276 15.7271 7.51286 15.7398 7.51384L17.6467 7.6618C18.5009 7.72808 19.2034 8.33156 19.3628 9.13604C19.7696 11.1889 19.8 13.2937 19.4525 15.3565L19.3693 15.8502C19.2125 16.7809 18.4108 17.4889 17.4274 17.5652L15.7662 17.6941C13.1571 17.8965 10.5352 17.8965 7.92611 17.6941L6.26489 17.5652C5.28152 17.4889 4.47981 16.7809 4.32302 15.8502L4.23985 15.3565C3.89233 13.2937 3.92266 11.1889 4.3295 9.13604C4.48894 8.33156 5.19143 7.72808 6.04561 7.6618L7.95253 7.51384C7.96518 7.51286 7.97492 7.50276 7.97492 7.49064ZM11.8462 8.80421C10.0748 8.80421 8.6389 10.1761 8.6389 11.8684C8.6389 13.5608 10.0748 14.9327 11.8462 14.9327C13.6175 14.9327 15.0534 13.5608 15.0534 11.8684C15.0534 10.1761 13.6175 8.80421 11.8462 8.80421Z" fill="black"/>
</svg>
