<svg width="18" height="16" viewBox="0 0 18 16" fill="none" xmlns="http://www.w3.org/2000/svg">
<path fill-rule="evenodd" clip-rule="evenodd" d="M4.96607 0.159601C7.78389 -0.0671419 10.6142 -0.0522647 13.4298 0.20409L15.1267 0.35859C16.4085 0.475293 17.4487 1.51385 17.6436 2.87144L17.7507 3.61712C18.114 6.14754 18.08 8.72489 17.6502 11.2434C17.4381 12.4861 16.4242 13.3891 15.2411 13.3891H5.86024C5.64442 13.3891 5.43196 13.4462 5.24185 13.5553L1.15483 15.9003C0.911926 16.0397 0.61829 16.0325 0.381602 15.8814C0.144914 15.7304 0 15.4576 0 15.1632V5.66001C0 2.78294 2.07696 0.392081 4.76413 0.175851L4.96607 0.159601ZM4.96404 5.67932C4.24258 5.67932 3.65771 6.30374 3.65771 7.074C3.65771 7.84427 4.24258 8.46869 4.96404 8.46869C5.6855 8.46869 6.27036 7.84427 6.27036 7.074C6.27036 6.30374 5.6855 5.67932 4.96404 5.67932ZM9.14428 5.67932C8.42282 5.67932 7.83796 6.30374 7.83796 7.074C7.83796 7.84427 8.42282 8.46869 9.14428 8.46869C9.86574 8.46869 10.4506 7.84427 10.4506 7.074C10.4506 6.30374 9.86574 5.67932 9.14428 5.67932ZM12.0182 7.074C12.0182 6.30374 12.6031 5.67932 13.3245 5.67932C14.046 5.67932 14.6309 6.30374 14.6309 7.074C14.6309 7.84427 14.046 8.46869 13.3245 8.46869C12.6031 8.46869 12.0182 7.84427 12.0182 7.074Z" fill="url(#paint0_linear_160_19647)"/>
<defs>
<linearGradient id="paint0_linear_160_19647" x1="0" y1="0" x2="21.0222" y2="7.31765" gradientUnits="userSpaceOnUse">
<stop stop-color="#300048"/>
<stop offset="1" stop-color="#650196"/>
</linearGradient>
</defs>
</svg>
