<svg width="17" height="15" viewBox="0 0 17 15" fill="none" xmlns="http://www.w3.org/2000/svg">
<path fill-rule="evenodd" clip-rule="evenodd" d="M5.26159 0.653037C7.67968 0.466142 10.1085 0.478405 12.5247 0.689706L13.9809 0.817054C15.0808 0.913247 15.9735 1.76928 16.1407 2.88828L16.2326 3.50292C16.5444 5.58863 16.5152 7.71302 16.1464 9.78891C15.9644 10.8132 15.0943 11.5576 14.0791 11.5576H6.02892C5.84371 11.5576 5.66139 11.6046 5.49825 11.6945L1.99101 13.6274C1.78256 13.7423 1.53058 13.7364 1.32747 13.6118C1.12436 13.4873 1 13.2625 1 13.0198V5.18678C1 2.81534 2.78233 0.844659 5.0883 0.66643L5.26159 0.653037ZM5.25985 5.20269C4.64073 5.20269 4.13884 5.71737 4.13884 6.35227C4.13884 6.98716 4.64073 7.50185 5.25985 7.50185C5.87897 7.50185 6.38087 6.98716 6.38087 6.35227C6.38087 5.71737 5.87897 5.20269 5.25985 5.20269ZM8.8471 5.20269C8.22798 5.20269 7.72608 5.71737 7.72608 6.35227C7.72608 6.98716 8.22798 7.50185 8.8471 7.50185C9.46621 7.50185 9.96811 6.98716 9.96811 6.35227C9.96811 5.71737 9.46621 5.20269 8.8471 5.20269ZM11.3133 6.35227C11.3133 5.71737 11.8152 5.20269 12.4343 5.20269C13.0535 5.20269 13.5554 5.71737 13.5554 6.35227C13.5554 6.98716 13.0535 7.50185 12.4343 7.50185C11.8152 7.50185 11.3133 6.98716 11.3133 6.35227Z" stroke="#9F9F9F" stroke-linejoin="round"/>
</svg>
