<svg width="22" height="21" viewBox="0 0 22 21" fill="none" xmlns="http://www.w3.org/2000/svg">
<path d="M19.4709 4.69587L19.1568 4.79547L17.4836 4.94453L17.0111 5.69921L16.6681 5.59025L15.3366 4.38972L15.1434 3.76539L14.8847 3.09961L14.0478 2.34894L13.0605 2.15576L13.0378 2.60763L14.005 3.55148L14.4783 4.10897L13.9462 4.38705L13.5131 4.25937L12.864 3.98865L12.8861 3.46525L12.0344 3.11499L11.7517 4.3456L10.8934 4.54012L10.9783 5.22662L12.0966 5.44186L12.2898 4.34493L13.2129 4.4813L13.6421 4.73263H14.3306L14.8018 5.67648L16.0512 6.94386L15.9596 7.43651L14.9522 7.30817L13.2116 8.18718L11.9582 9.69052L11.7951 10.3563H11.3453L10.507 9.96993L9.69287 10.3563L9.89541 11.2153L10.2497 10.8068L10.8727 10.7874L10.8292 11.5588L11.3453 11.7099L11.8607 12.2888L12.7022 12.0522L13.6635 12.2039L14.7798 12.504L15.3373 12.5695L16.2824 13.6424L18.1066 14.7153L16.9268 16.9693L15.6815 17.5481L15.2089 18.8362L13.4068 20.0395L13.2149 20.7333C17.8219 19.6237 21.249 15.4853 21.249 10.5374C21.2509 8.45669 20.6318 6.42271 19.4709 4.69587Z" fill="url(#paint0_linear_151_6184)"/>
<path d="M11.9574 15.9873L11.1927 14.5695L11.8946 13.107L11.1927 12.8971L10.4046 12.1056L8.65862 11.7139L8.07907 10.5013V11.2213H7.82372L6.31904 9.18116V7.50535L5.2161 5.71191L3.46476 6.02407H2.28495L1.69137 5.63503L2.44872 5.03477L1.69337 5.20923C0.749768 6.81299 0.252189 8.63991 0.252197 10.5007C0.252197 16.2981 4.95206 21 10.7502 21C11.1967 21 11.6346 20.9606 12.0677 20.9084L11.9581 19.6364C11.9581 19.6364 12.44 17.7473 12.44 17.6832C12.4394 17.6183 11.9574 15.9873 11.9574 15.9873ZM4.15327 3.3857L6.01824 3.12568L6.87787 2.65442L7.84511 2.93316L9.39057 2.8476L9.91998 2.01538L10.692 2.14239L12.567 1.96658L13.0837 1.39707L13.8124 0.910434L14.8431 1.06551L15.2188 1.0087C13.8219 0.346359 12.2955 0.00186812 10.7495 6.56385e-06C9.20173 -0.00172651 7.67281 0.339755 6.27284 0.999864C4.87286 1.65997 3.63667 2.62229 2.65327 3.81752H2.65861L4.15327 3.3857ZM11.1934 1.04412L12.2656 0.453884L12.9541 0.851611L11.9574 1.6103L11.0055 1.70589L10.5771 1.42781L11.1934 1.04412ZM8.01757 1.13035L8.49083 1.32755L9.11049 1.13035L9.44805 1.71525L8.01757 2.09092L7.32974 1.68851C7.32907 1.68851 8.0022 1.25535 8.01757 1.13035Z" fill="url(#paint1_linear_151_6184)"/>
<defs>
<linearGradient id="paint0_linear_151_6184" x1="9.69287" y1="2.15576" x2="24.2841" y2="4.96415" gradientUnits="userSpaceOnUse">
<stop stop-color="#300048"/>
<stop offset="1" stop-color="#650196"/>
</linearGradient>
<linearGradient id="paint1_linear_151_6184" x1="0.252197" y1="0" x2="18.9409" y2="4.12118" gradientUnits="userSpaceOnUse">
<stop stop-color="#300048"/>
<stop offset="1" stop-color="#650196"/>
</linearGradient>
</defs>
</svg>
