<svg width="21" height="28" viewBox="0 0 21 28" fill="none" xmlns="http://www.w3.org/2000/svg">
<path fill-rule="evenodd" clip-rule="evenodd" d="M19.2121 0.933054C18.6368 0.358327 17.843 0 16.9677 0H3.17584C2.30215 0 1.5067 0.357788 0.931975 0.933054C0.356709 1.50832 0 2.30215 0 3.17746V9.90365C0 10.7784 0.356169 11.5728 0.931435 12.1475C1.5067 12.7222 2.30215 13.0806 3.1753 13.0806H6.92748V11.413C6.92748 10.4125 7.74289 9.59551 8.74502 9.59551C9.74553 9.59551 10.5626 10.4125 10.5626 11.413V12.0542C10.5825 12.0525 10.6041 12.0525 10.6252 12.0525C11.3424 12.0525 11.9667 12.4735 12.2603 13.0806H16.9671C17.8419 13.0806 18.6363 12.7228 19.211 12.1475C19.7857 11.5722 20.144 10.7784 20.144 9.90365V3.17746C20.1451 2.30215 19.7868 1.50832 19.2121 0.933054ZM7.35327 22.369L4.79101 17.9315C4.53252 17.483 4.68686 16.9067 5.13531 16.6482C5.60642 16.4124 6.14661 16.5198 6.41859 16.9925L7.80441 19.3928V11.4136C7.80441 10.8966 8.22804 10.4746 8.74502 10.4746C9.26201 10.4746 9.68401 10.8966 9.68401 11.4136V13.8701C9.68401 13.3531 10.1076 12.9295 10.6246 12.9295C11.1416 12.9295 11.5636 13.3531 11.5636 13.8701V15.0233C11.5636 14.5063 11.9856 14.0827 12.5026 14.0827C13.0196 14.0827 13.4432 14.5063 13.4432 15.0233V15.8554C13.4432 15.3385 13.8652 14.9165 14.3822 14.9165C14.8992 14.9165 15.3212 15.3385 15.3212 15.8554V21.9378C15.3212 22.3998 15.2429 22.7959 15.067 23.2227L14.6801 24.1633H7.80495V24.0549C7.80495 23.4354 7.66249 22.9043 7.35327 22.369ZM15.4777 25.2972V27.3743C15.4777 27.5151 15.3627 27.6295 15.2208 27.6295H6.90374C6.83608 27.6294 6.77124 27.6024 6.7234 27.5546C6.67556 27.5068 6.64863 27.4419 6.64848 27.3743V25.2972C6.64848 25.1563 6.76343 25.0403 6.90374 25.0403H15.2208C15.3633 25.0403 15.4777 25.1563 15.4777 25.2972Z" fill="url(#paint0_linear_160_19642)"/>
<defs>
<linearGradient id="paint0_linear_160_19642" x1="0" y1="0" x2="25.0996" y2="5.66213" gradientUnits="userSpaceOnUse">
<stop stop-color="#300048"/>
<stop offset="1" stop-color="#650196"/>
</linearGradient>
</defs>
</svg>
