<svg width="20" height="20" viewBox="0 0 20 20" fill="none" xmlns="http://www.w3.org/2000/svg">
<path d="M0.36625 7.8477L9.11625 0.315065C9.35066 0.113329 9.66854 0 10 0C10.3315 0 10.6493 0.113329 10.8837 0.315065L19.6338 7.8477C19.8682 8.04946 19.9999 8.32312 20 8.6085V18.9239C20 19.2093 19.8683 19.483 19.6339 19.6848C19.3995 19.8866 19.0815 20 18.75 20H12.5V12.4674H7.5V20H1.25C0.918479 20 0.600537 19.8866 0.366117 19.6848C0.131696 19.483 0 19.2093 0 18.9239V8.6085C7.07968e-05 8.32312 0.131814 8.04946 0.36625 7.8477Z" fill="url(#paint0_linear_151_6187)"/>
<defs>
<linearGradient id="paint0_linear_151_6187" x1="0" y1="0" x2="23.9002" y2="7.39504" gradientUnits="userSpaceOnUse">
<stop stop-color="#300048"/>
<stop offset="1" stop-color="#650196"/>
</linearGradient>
</defs>
</svg>
