<svg width="19" height="16" viewBox="0 0 19 16" fill="none" xmlns="http://www.w3.org/2000/svg">
<path d="M9.49007 0C10.4437 0 12.66 0.505044 12.66 3.58191C12.66 4.43896 12.5538 4.97391 12.4795 5.3447C12.4648 5.4174 12.451 5.49021 12.4381 5.56313L12.4372 5.56661C12.4315 5.6022 12.4354 5.63835 12.4485 5.67263C12.4617 5.70691 12.4839 5.73852 12.5135 5.7653C12.5432 5.79208 12.5796 5.81342 12.6204 5.82787C12.6612 5.84232 12.7053 5.84954 12.7499 5.84904C16.5495 5.84904 18.5785 6.65878 18.5785 7.48591C18.5785 7.8567 18.4057 8.19548 18.1233 8.45635C18.1146 8.46459 18.1081 8.47422 18.1044 8.48462C18.1006 8.49501 18.0997 8.50593 18.1016 8.51664C18.1034 8.52736 18.1081 8.53763 18.1153 8.54678C18.1225 8.55594 18.132 8.56376 18.1432 8.56974C18.4043 8.70267 18.6197 8.88642 18.7694 9.10404C18.9192 9.32166 18.9985 9.56615 19 9.81496C19 10.4132 18.588 10.9266 17.9505 11.1666C17.9385 11.1713 17.9279 11.1779 17.9192 11.1861C17.9106 11.1942 17.9042 11.2038 17.9005 11.2141C17.8967 11.2244 17.8957 11.2352 17.8975 11.2458C17.8993 11.2565 17.9038 11.2667 17.9108 11.2758C18.0896 11.504 18.195 11.7718 18.195 12.0605C18.195 12.7186 17.7225 13.2717 16.9805 13.472C16.9572 13.4785 16.9379 13.4921 16.9269 13.51C16.9159 13.5278 16.9141 13.5484 16.9218 13.5673C16.9745 13.6953 17.0065 13.8317 17.0065 13.9736C17.0065 14.7082 15.4724 15.3043 11.8671 15.3043C9.23267 15.3043 7.41533 14.9252 6.71655 14.6532C6.20262 14.4529 5.6144 14.0897 5.6144 13.0254V8.79165C5.6144 7.59513 6.44188 6.79513 7.26504 5.9993C8.08215 5.21043 8.89667 4.42435 8.89667 3.25635C8.89667 2.32417 8.81807 1.73287 8.75933 1.2967C8.72565 1.0407 8.69887 0.837565 8.69887 0.65113C8.69887 0.284522 9.03055 0.0013913 9.49007 0ZM3.02314 7.65217H1.29563C0.431877 7.65217 0 9.5207 0 11.8261C0 14.1315 0.431877 16 1.29563 16H3.02314C3.25222 16 3.47192 15.9267 3.63391 15.7962C3.79589 15.6658 3.88689 15.4888 3.88689 15.3043V8.34783C3.88689 8.16333 3.79589 7.98639 3.63391 7.85593C3.47192 7.72547 3.25222 7.65217 3.02314 7.65217Z" fill="url(#paint0_linear_160_19638)"/>
<defs>
<linearGradient id="paint0_linear_160_19638" x1="0" y1="0" x2="21.9196" y2="8.05391" gradientUnits="userSpaceOnUse">
<stop stop-color="#300048"/>
<stop offset="1" stop-color="#650196"/>
</linearGradient>
</defs>
</svg>
