<svg width="17" height="14" viewBox="0 0 17 14" fill="none" xmlns="http://www.w3.org/2000/svg">
<path d="M13.9724 11.3974C14.0567 11.2587 14.1861 11.1788 14.3075 11.1446L14.3112 11.1436L14.3112 11.1436C14.7396 11.0263 14.9305 10.7383 14.9305 10.4624C14.9305 10.3495 14.8909 10.234 14.8039 10.1214L14.8007 10.1173L14.8008 10.1173C14.7493 10.0493 14.7109 9.96624 14.6954 9.87254L14.6954 9.87249C14.6798 9.77837 14.6891 9.68331 14.7205 9.59591L14.7205 9.59589C14.7516 9.50919 14.8017 9.43705 14.8599 9.38116L14.8599 9.38113C14.9178 9.32549 14.9835 9.28591 15.0495 9.26006L15.0535 9.25848L15.0535 9.25849C15.4204 9.11843 15.5843 8.85571 15.585 8.61301C15.5841 8.51327 15.5529 8.40811 15.4838 8.30632C15.4136 8.20285 15.305 8.10474 15.1591 8.02945L15.1504 8.02498L15.1505 8.02489C15.0853 7.98966 15.0221 7.93928 14.9701 7.87195L6.09883 12.5995C5.68101 12.4343 5.20281 12.135 5.20281 11.2577V7.76805C5.20281 6.78181 5.87552 6.12241 6.54473 5.46644L6.54521 5.46597C7.20935 4.8159 7.87121 4.16804 7.87121 3.20555C7.87121 2.4372 7.80731 1.94981 7.75956 1.59029L7.75941 1.58908C7.73209 1.37864 7.71041 1.21156 7.71041 1.05818C7.71041 0.756003 7.98006 0.522631 8.35363 0.521484C9.12888 0.521484 10.9308 0.937769 10.9308 3.47389C10.9308 4.18032 10.8444 4.62126 10.784 4.92688M13.9724 11.3974C13.9724 11.3974 13.9724 11.3974 13.9724 11.3974L14.3996 11.6571L13.9724 11.3974ZM13.9724 11.3974C13.8839 11.543 13.8649 11.725 13.9315 11.8908L13.9322 11.8925C13.9523 11.942 13.9619 11.9854 13.9639 12.0238M13.9639 12.0238C13.9568 12.0337 13.9413 12.0514 13.9098 12.0769C13.8189 12.1502 13.6414 12.2449 13.3339 12.3349C12.7225 12.5139 11.7329 12.6362 10.2861 12.6362C8.17826 12.6362 6.77032 12.3269 6.28262 12.1345C6.10455 12.0641 5.97086 11.9862 5.87748 11.8746C5.79277 11.7735 5.70281 11.5986 5.70281 11.2577V7.76805C5.70281 7.02549 6.19444 6.50995 6.89449 5.82376C6.91141 5.80719 6.92849 5.7905 6.9457 5.77368C7.57111 5.16242 8.37121 4.3804 8.37121 3.20555C8.37121 2.40571 8.30423 1.89359 8.25531 1.52524C8.22711 1.30789 8.21084 1.17623 8.21042 1.06273C8.21137 1.06175 8.21265 1.06054 8.21432 1.05913C8.22772 1.04783 8.27055 1.02188 8.3545 1.02148C8.67141 1.02165 9.1953 1.11005 9.62804 1.44294C10.0361 1.75688 10.4308 2.33934 10.4308 3.47389C10.4308 4.1332 10.3512 4.53778 10.2935 4.82995L10.784 4.92688M13.9639 12.0238C13.9641 12.029 13.9643 12.0342 13.9643 12.0393C13.9643 12.0299 13.9656 12.0232 13.9669 12.0192M13.9639 12.0238C13.9651 12.022 13.9661 12.0204 13.9669 12.0192M10.784 4.92688C10.772 4.9868 10.7608 5.04682 10.7503 5.10692L10.2646 4.98801L10.2639 4.99088L10.2607 5.00403M10.784 4.92688L10.2937 4.82901C10.282 4.88726 10.2711 4.9456 10.2607 5.00403M10.2607 5.00403L10.259 5.01118L10.2557 5.03182C10.2373 5.14856 10.2503 5.26621 10.2912 5.37429M10.2607 5.00403L10.2912 5.37429M10.2912 5.37429C10.2912 5.37429 10.2912 5.3743 10.2912 5.3743L10.7588 5.19718C10.7695 5.22544 10.7875 5.25148 10.8116 5.27356L10.4739 5.64229C10.397 5.5718 10.3319 5.48158 10.2912 5.37429ZM11.0059 5.84259C12.5199 5.84274 13.6485 6.0071 14.3809 6.23833C14.7497 6.35476 14.9905 6.47963 15.1286 6.58744C15.2087 6.65001 15.2347 6.69013 15.2421 6.70493C15.2383 6.84546 15.1727 6.99349 15.0305 7.12671L15.0305 7.12668L15.0261 7.13085C14.9675 7.18712 14.9169 7.2599 14.8858 7.34747C14.8544 7.43578 14.8455 7.53173 14.8619 7.62648L14.8619 7.62654L11.0059 5.84259ZM11.0059 5.84259C11.0052 5.84259 11.0045 5.84259 11.0038 5.84259V5.34259L11.0094 5.84256C11.0082 5.84257 11.0071 5.84258 11.0059 5.84259ZM13.9669 12.0192C13.9679 12.016 13.9689 12.0144 13.9691 12.0144C13.9693 12.0144 13.9688 12.016 13.9669 12.0192ZM15.2447 6.71135C15.2447 6.71136 15.2444 6.71056 15.244 6.70894C15.2446 6.71053 15.2448 6.71133 15.2447 6.71135ZM1.6297 7.40078C1.66528 7.35375 1.68873 7.3353 1.69978 7.32883H3.09617C3.1789 7.32883 3.24274 7.35652 3.27647 7.38406C3.2903 7.39535 3.29628 7.40416 3.29838 7.40782V13.1306C3.29628 13.1342 3.2903 13.143 3.27647 13.1543C3.24274 13.1819 3.1789 13.2096 3.09617 13.2096H1.69978C1.68873 13.2031 1.66528 13.1846 1.6297 13.1376C1.55139 13.0341 1.46281 12.8493 1.38299 12.5663C1.22494 12.0058 1.13843 11.1968 1.13843 10.2692C1.13843 9.3416 1.22494 8.53261 1.38299 7.97213C1.46281 7.68905 1.55139 7.50432 1.6297 7.40078ZM1.70713 13.2126C1.70713 13.2129 1.70515 13.2125 1.70122 13.2104C1.70517 13.2111 1.70714 13.2122 1.70713 13.2126ZM1.70122 7.32801C1.70515 7.32587 1.70713 7.32548 1.70713 7.32583C1.70714 7.32618 1.70517 7.32725 1.70122 7.32801Z" stroke="#9F9F9F"/>
</svg>
