<svg width="58" height="58" viewBox="0 0 58 58" fill="none" xmlns="http://www.w3.org/2000/svg">
<circle cx="29" cy="29" r="27.5" fill="url(#paint0_linear_160_17115)" stroke="white" stroke-width="3"/>
<path fill-rule="evenodd" clip-rule="evenodd" d="M19.8076 38.1924C24.8844 43.2692 33.1156 43.2692 38.1924 38.1924C43.2692 33.1156 43.2692 24.8844 38.1924 19.8076C33.1156 14.7308 24.8844 14.7308 19.8076 19.8076C14.7308 24.8844 14.7308 33.1156 19.8076 38.1924ZM35.6645 22.3355C35.2837 21.9548 34.6664 21.9548 34.2856 22.3355C33.9049 22.7163 33.9049 23.3336 34.2856 23.7144C37.2048 26.6335 37.2048 31.3665 34.2856 34.2856C33.9049 34.6664 33.9049 35.2837 34.2856 35.6645C34.6664 36.0452 35.2837 36.0452 35.6645 35.6645C39.3452 31.9838 39.3452 26.0162 35.6645 22.3355ZM25.5529 25.5529C27.4567 23.649 30.5433 23.649 32.4471 25.5529C34.351 27.4567 34.351 30.5433 32.4471 32.4471C30.5433 34.351 27.4567 34.351 25.5529 32.4471C23.649 30.5433 23.649 27.4567 25.5529 25.5529ZM26.9317 26.9317C28.074 25.7894 29.926 25.7894 31.0683 26.9317C32.2106 28.074 32.2106 29.926 31.0683 31.0683C29.926 32.2106 28.074 32.2106 26.9317 31.0683C25.7894 29.926 25.7894 28.074 26.9317 26.9317ZM23.7144 23.7144C24.0951 23.3336 24.0951 22.7163 23.7144 22.3355C23.3336 21.9548 22.7163 21.9548 22.3355 22.3355C18.6548 26.0162 18.6548 31.9838 22.3355 35.6645C22.7163 36.0452 23.3336 36.0452 23.7144 35.6645C24.0951 35.2837 24.0951 34.6664 23.7144 34.2856C20.7952 31.3665 20.7952 26.6335 23.7144 23.7144Z" fill="white"/>
<defs>
<linearGradient id="paint0_linear_160_17115" x1="3" y1="3" x2="65.1404" y2="22.2271" gradientUnits="userSpaceOnUse">
<stop stop-color="#300048"/>
<stop offset="1" stop-color="#650196"/>
</linearGradient>
</defs>
</svg>
