<svg width="18" height="19" viewBox="0 0 18 19" fill="none" xmlns="http://www.w3.org/2000/svg">
<g clip-path="url(#clip0_161_24482)">
<path d="M9.5625 1.12109C9.5625 0.810434 9.31066 0.558594 9 0.558594C8.68934 0.558594 8.4375 0.810434 8.4375 1.12109V5.12109C8.4375 5.43175 8.68934 5.68359 9 5.68359C9.31066 5.68359 9.5625 5.43175 9.5625 5.12109V1.12109Z" fill="#1C274C"/>
<path d="M6.59392 3.91879C6.88009 3.79788 7.01406 3.46788 6.89315 3.18171C6.77224 2.89555 6.44225 2.76158 6.15608 2.88248C3.53124 3.99149 1.6875 6.59038 1.6875 9.6212C1.6875 13.6598 4.96142 16.9337 9 16.9337C13.0386 16.9337 16.3125 13.6598 16.3125 9.6212C16.3125 6.59038 14.4688 3.99149 11.8439 2.88248C11.5578 2.76158 11.2278 2.89555 11.1068 3.18171C10.9859 3.46788 11.1199 3.79788 11.4061 3.91879C13.6292 4.85805 15.1875 7.05829 15.1875 9.6212C15.1875 13.0385 12.4173 15.8087 9 15.8087C5.58274 15.8087 2.8125 13.0385 2.8125 9.6212C2.8125 7.05829 4.37084 4.85805 6.59392 3.91879Z" fill="#1C274C"/>
<path d="M9.5625 1.12109C9.5625 0.810434 9.31066 0.558594 9 0.558594C8.68934 0.558594 8.4375 0.810434 8.4375 1.12109V5.12109C8.4375 5.43175 8.68934 5.68359 9 5.68359C9.31066 5.68359 9.5625 5.43175 9.5625 5.12109V1.12109Z" stroke="#630094" stroke-linecap="round"/>
<path d="M6.59392 3.91879C6.88009 3.79788 7.01406 3.46788 6.89315 3.18171C6.77224 2.89555 6.44225 2.76158 6.15608 2.88248C3.53124 3.99149 1.6875 6.59038 1.6875 9.6212C1.6875 13.6598 4.96142 16.9337 9 16.9337C13.0386 16.9337 16.3125 13.6598 16.3125 9.6212C16.3125 6.59038 14.4688 3.99149 11.8439 2.88248C11.5578 2.76158 11.2278 2.89555 11.1068 3.18171C10.9859 3.46788 11.1199 3.79788 11.4061 3.91879C13.6292 4.85805 15.1875 7.05829 15.1875 9.6212C15.1875 13.0385 12.4173 15.8087 9 15.8087C5.58274 15.8087 2.8125 13.0385 2.8125 9.6212C2.8125 7.05829 4.37084 4.85805 6.59392 3.91879Z" stroke="#630094" stroke-linecap="round"/>
</g>
<defs>
<clipPath id="clip0_161_24482">
<rect width="18" height="18" fill="white" transform="translate(0 0.0585938)"/>
</clipPath>
</defs>
</svg>
