<svg width="25" height="24" viewBox="0 0 25 24" fill="none" xmlns="http://www.w3.org/2000/svg">
<path fill-rule="evenodd" clip-rule="evenodd" d="M12.8633 22C18.3861 22 22.8633 17.5228 22.8633 12C22.8633 6.47715 18.3861 2 12.8633 2C7.34043 2 2.86328 6.47715 2.86328 12C2.86328 13.5997 3.2389 15.1116 3.90674 16.4525C4.08422 16.8088 4.14329 17.2161 4.0404 17.6006L3.44479 19.8267C3.18624 20.793 4.0703 21.677 5.03663 21.4185L7.26267 20.8229C7.64721 20.72 8.05449 20.7791 8.41081 20.9565C9.75165 21.6244 11.2636 22 12.8633 22ZM8.86328 13.25C8.44907 13.25 8.11328 13.5858 8.11328 14C8.11328 14.4142 8.44907 14.75 8.86328 14.75H14.3633C14.7775 14.75 15.1133 14.4142 15.1133 14C15.1133 13.5858 14.7775 13.25 14.3633 13.25H8.86328ZM8.11328 10.5C8.11328 10.0858 8.44907 9.75 8.86328 9.75H16.8633C17.2775 9.75 17.6133 10.0858 17.6133 10.5C17.6133 10.9142 17.2775 11.25 16.8633 11.25H8.86328C8.44907 11.25 8.11328 10.9142 8.11328 10.5Z" fill="white"/>
</svg>
