<svg width="20" height="16" viewBox="0 0 20 16" fill="none" xmlns="http://www.w3.org/2000/svg">
<path d="M0 7.5V8.5C0 11.7875 0 13.4312 0.907958 14.5376C1.07418 14.7401 1.25989 14.9258 1.46243 15.092C2.56878 16 4.21252 16 7.5 16C10.7875 16 12.4312 16 13.5376 15.092C13.7401 14.9258 13.9258 14.7401 14.092 14.5376C14.7936 13.6827 14.9531 12.507 14.9893 10.5L15.6584 10.8292C17.6042 11.8021 18.5772 12.2886 19.2886 11.8489C20 11.4093 20 10.3215 20 8.1459V7.8541C20 5.67853 20 4.59075 19.2886 4.15107C18.5772 3.7114 17.6042 4.19788 15.6584 5.17082L14.9893 5.50002C14.9531 3.49303 14.7936 2.3173 14.092 1.46243C13.9258 1.25989 13.7401 1.07418 13.5376 0.907958C12.4312 0 10.7875 0 7.5 0C4.21252 0 2.56878 0 1.46243 0.907958C1.25989 1.07418 1.07418 1.25989 0.907958 1.46243C0 2.56878 0 4.21252 0 7.5Z" fill="url(#paint0_linear_741_271)"/>
<defs>
<linearGradient id="paint0_linear_741_271" x1="0" y1="0" x2="22.7806" y2="8.81078" gradientUnits="userSpaceOnUse">
<stop stop-color="#300048"/>
<stop offset="1" stop-color="#650196"/>
</linearGradient>
</defs>
</svg>
