<svg width="19" height="20" viewBox="0 0 19 20" fill="none" xmlns="http://www.w3.org/2000/svg">
<path fill-rule="evenodd" clip-rule="evenodd" d="M1.42304 1.17157C0.251465 2.34315 0.251465 4.22876 0.251465 8V12C0.251465 15.7712 0.251465 17.6569 1.42304 18.8284C2.59461 20 4.48023 20 8.25146 20H10.2515C14.0227 20 15.9083 20 17.0799 18.8284C18.2515 17.6569 18.2515 15.7712 18.2515 12V8C18.2515 4.22876 18.2515 2.34315 17.0799 1.17157C15.9083 0 14.0227 0 10.2515 0H8.25146C4.48023 0 2.59461 0 1.42304 1.17157ZM5.25146 7.25C4.83725 7.25 4.50146 7.58579 4.50146 8C4.50146 8.41421 4.83725 8.75 5.25146 8.75H13.2515C13.6657 8.75 14.0015 8.41421 14.0015 8C14.0015 7.58579 13.6657 7.25 13.2515 7.25H5.25146ZM5.25146 11.25C4.83725 11.25 4.50146 11.5858 4.50146 12C4.50146 12.4142 4.83725 12.75 5.25146 12.75H10.2515C10.6657 12.75 11.0015 12.4142 11.0015 12C11.0015 11.5858 10.6657 11.25 10.2515 11.25H5.25146Z" fill="url(#paint0_linear_741_264)"/>
<defs>
<linearGradient id="paint0_linear_741_264" x1="0.251465" y1="0" x2="22.1247" y2="6.0911" gradientUnits="userSpaceOnUse">
<stop stop-color="#300048"/>
<stop offset="1" stop-color="#650196"/>
</linearGradient>
</defs>
</svg>
