<svg width="22" height="18" viewBox="0 0 22 18" fill="none" xmlns="http://www.w3.org/2000/svg">
<path d="M18.7001 0H3.30007C1.94007 0 0.820068 1.1 0.820068 2.48V11.92C0.820068 13.28 1.92007 14.4 3.30007 14.4H8.84007L10.3401 16.98C10.5001 17.26 10.9201 17.26 11.0801 16.98L12.5801 14.4H18.7001C20.0601 14.4 21.1801 13.3 21.1801 11.92V2.48C21.1801 1.1 20.0801 0 18.7001 0Z" fill="url(#paint0_linear_151_6188)"/>
<path d="M11 7.10012C12.2371 7.10012 13.24 6.09723 13.24 4.86012C13.24 3.623 12.2371 2.62012 11 2.62012C9.76289 2.62012 8.76001 3.623 8.76001 4.86012C8.76001 6.09723 9.76289 7.10012 11 7.10012Z" fill="white"/>
<path d="M11.0001 7.7002C8.74011 7.7002 6.76011 9.00019 5.86011 10.9202V11.1002C5.86011 11.4802 6.16011 11.7802 6.54011 11.7802H15.5001C15.8801 11.7802 16.1801 11.4802 16.1801 11.1002V10.9202C15.2401 9.0402 13.2601 7.7002 11.0001 7.7002Z" fill="white"/>
<defs>
<linearGradient id="paint0_linear_151_6188" x1="0.820068" y1="0" x2="24.3232" y2="8.61327" gradientUnits="userSpaceOnUse">
<stop stop-color="#300048"/>
<stop offset="1" stop-color="#650196"/>
</linearGradient>
</defs>
</svg>
