<svg width="25" height="24" viewBox="0 0 25 24" fill="none" xmlns="http://www.w3.org/2000/svg">
<path d="M16.0562 14.5477L15.6007 15.0272C15.6007 15.0272 14.5181 16.167 11.5631 13.0559C8.60812 9.94484 9.6907 8.80507 9.6907 8.80507L9.97752 8.50311C10.6841 7.75924 10.7507 6.56497 10.1342 5.6931L8.87326 3.90961C8.11028 2.8305 6.63596 2.68795 5.76145 3.60864L4.19185 5.26114C3.75823 5.71766 3.46765 6.30945 3.50289 6.96594C3.59304 8.64546 4.31071 12.259 8.31536 16.4752C12.5621 20.9462 16.5468 21.1239 18.1763 20.9631C18.6917 20.9122 19.1399 20.6343 19.5011 20.254L20.9217 18.7584C21.8806 17.7489 21.6102 16.0182 20.3833 15.312L18.4728 14.2123C17.6672 13.7486 16.6858 13.8848 16.0562 14.5477Z" fill="white"/>
<path d="M13.7595 1.88008C13.8257 1.47119 14.2122 1.19381 14.6211 1.26001C14.6464 1.26485 14.7279 1.28007 14.7705 1.28958C14.8559 1.30858 14.9749 1.33784 15.1233 1.38106C15.4201 1.46751 15.8347 1.60991 16.3323 1.83805C17.3286 2.2948 18.6544 3.09381 20.0302 4.46961C21.406 5.84541 22.205 7.17122 22.6617 8.1675C22.8899 8.66511 23.0323 9.07972 23.1187 9.3765C23.1619 9.5249 23.1912 9.64393 23.2102 9.72926C23.2197 9.77193 23.2267 9.80619 23.2315 9.8315L23.2373 9.86269C23.3034 10.2716 23.0286 10.6741 22.6197 10.7403C22.212 10.8063 21.8279 10.5303 21.7601 10.1233C21.758 10.1124 21.7522 10.083 21.7461 10.0553C21.7337 9.99994 21.7124 9.91212 21.6786 9.79597C21.6109 9.56363 21.4934 9.2183 21.2982 8.79262C20.9084 7.94232 20.2074 6.76813 18.9695 5.53027C17.7317 4.2924 16.5575 3.59141 15.7072 3.20158C15.2815 3.00642 14.9362 2.88889 14.7038 2.82122C14.5877 2.78739 14.4417 2.75387 14.3863 2.74154C13.9793 2.67372 13.6935 2.2878 13.7595 1.88008Z" fill="white"/>
<path fill-rule="evenodd" clip-rule="evenodd" d="M13.9857 5.32954C14.0995 4.93126 14.5146 4.70065 14.9129 4.81444L14.7069 5.53558C14.9129 4.81444 14.9129 4.81444 14.9129 4.81444L14.9144 4.81485L14.9159 4.81529L14.9192 4.81627L14.927 4.81858L14.9468 4.82475C14.9618 4.82957 14.9807 4.83585 15.0031 4.84381C15.048 4.85975 15.1074 4.88242 15.1802 4.91362C15.3259 4.97605 15.5249 5.07248 15.7695 5.21719C16.2589 5.50687 16.9271 5.98805 17.7121 6.77302C18.4971 7.55799 18.9782 8.22618 19.2679 8.71564C19.4126 8.96015 19.509 9.15922 19.5715 9.3049C19.6027 9.37771 19.6254 9.43707 19.6413 9.48198C19.6493 9.50443 19.6555 9.52326 19.6604 9.53834L19.6665 9.55812L19.6688 9.56587L19.6698 9.56921L19.6702 9.57074C19.6702 9.57074 19.6707 9.57218 18.9495 9.77822L19.6707 9.57218C19.7845 9.97046 19.5538 10.3856 19.1556 10.4994C18.7607 10.6122 18.3492 10.3864 18.2313 9.99437L18.2276 9.98359C18.2223 9.96856 18.2113 9.93898 18.1928 9.89578C18.1558 9.80944 18.0887 9.66821 17.9771 9.47962C17.7541 9.10288 17.3514 8.53363 16.6514 7.83368C15.9515 7.13373 15.3822 6.73102 15.0055 6.50805C14.8169 6.39644 14.6757 6.32934 14.5893 6.29234C14.5461 6.27382 14.5165 6.26279 14.5015 6.25746L14.4907 6.25376C14.0987 6.13588 13.8729 5.72443 13.9857 5.32954Z" fill="white"/>
</svg>
