<svg width="20" height="19" viewBox="0 0 20 19" fill="none" xmlns="http://www.w3.org/2000/svg">
<path d="M16.5116 8.07708C16.5116 8.81574 15.8869 9.41455 15.1163 9.41455C14.3457 9.41455 13.7209 8.81574 13.7209 8.07708C13.7209 7.33841 14.3457 6.7396 15.1163 6.7396C15.8869 6.7396 16.5116 7.33841 16.5116 8.07708Z" fill="url(#paint0_linear_741_290)"/>
<path fill-rule="evenodd" clip-rule="evenodd" d="M16.0363 3.53245C14.9766 3.39588 13.6225 3.39589 11.9129 3.39591H8.08705C6.37751 3.39589 5.02343 3.39588 3.9637 3.53245C2.87308 3.673 1.99033 3.96913 1.29418 4.63641C0.598028 5.30369 0.289082 6.14982 0.142451 7.19521C-2.61962e-05 8.21099 -1.44495e-05 9.50891 2.99175e-07 11.1475V11.2482C-1.44495e-05 12.8868 -2.61962e-05 14.1847 0.142451 15.2005C0.289082 16.2459 0.598028 17.092 1.29418 17.7593C1.99033 18.4266 2.87307 18.7227 3.9637 18.8633C5.02344 18.9998 6.37751 18.9998 8.08706 18.9998H11.9129C13.6225 18.9998 14.9766 18.9998 16.0363 18.8633C17.1269 18.7227 18.0097 18.4266 18.7058 17.7593C19.402 17.092 19.7109 16.2459 19.8575 15.2005C20 14.1847 20 12.8868 20 11.2482V11.1476C20 9.50891 20 8.21099 19.8575 7.19521C19.7109 6.14982 19.402 5.30369 18.7058 4.63641C18.0097 3.96913 17.1269 3.673 16.0363 3.53245ZM4.14963 4.858C3.21373 4.97861 2.67452 5.20479 2.28084 5.58215C1.88716 5.9595 1.65119 6.47635 1.52536 7.37343C1.42443 8.09297 1.40184 8.9923 1.3968 10.1686L1.86764 9.77374C2.99175 8.83094 4.68596 8.88501 5.74215 9.8974L9.7326 13.7223C10.1321 14.1053 10.7611 14.1575 11.2234 13.8461L11.5008 13.6593C12.8313 12.763 14.6314 12.8668 15.8402 13.9096L18.2479 15.9866C18.3463 15.7226 18.4206 15.4075 18.4746 15.0223C18.6032 14.106 18.6047 12.8981 18.6047 11.1979C18.6047 9.49763 18.6032 8.28975 18.4746 7.37343C18.3488 6.47635 18.1128 5.9595 17.7192 5.58215C17.3255 5.20479 16.7863 4.97861 15.8504 4.858C14.8944 4.7348 13.6343 4.73338 11.8605 4.73338H8.13954C6.36575 4.73338 5.10559 4.7348 4.14963 4.858Z" fill="url(#paint1_linear_741_290)"/>
<path d="M15.0863 0.610387C14.2265 0.49997 13.1318 0.499983 11.7672 0.5H8.67747C7.31284 0.499983 6.21815 0.49997 5.35834 0.610387C4.46796 0.724728 3.72561 0.968351 3.13682 1.53075C2.79725 1.8551 2.56856 2.22833 2.41279 2.64928C2.91699 2.41928 3.48704 2.28374 4.12705 2.20084C5.21143 2.06037 6.597 2.06038 8.3463 2.06039H12.2612C14.0105 2.06038 15.396 2.06037 16.4804 2.20084C17.0394 2.27325 17.545 2.38581 18 2.56638C17.8454 2.17917 17.625 1.83365 17.3078 1.53075C16.719 0.968351 15.9767 0.724728 15.0863 0.610387Z" fill="url(#paint2_linear_741_290)"/>
<defs>
<linearGradient id="paint0_linear_741_290" x1="0" y1="0.5" x2="23.5529" y2="8.37855" gradientUnits="userSpaceOnUse">
<stop stop-color="#300048"/>
<stop offset="1" stop-color="#650196"/>
</linearGradient>
<linearGradient id="paint1_linear_741_290" x1="0" y1="0.5" x2="23.5529" y2="8.37855" gradientUnits="userSpaceOnUse">
<stop stop-color="#300048"/>
<stop offset="1" stop-color="#650196"/>
</linearGradient>
<linearGradient id="paint2_linear_741_290" x1="0" y1="0.5" x2="23.5529" y2="8.37855" gradientUnits="userSpaceOnUse">
<stop stop-color="#300048"/>
<stop offset="1" stop-color="#650196"/>
</linearGradient>
</defs>
</svg>
