<svg width="56" height="87" viewBox="0 0 56 87" fill="none" xmlns="http://www.w3.org/2000/svg">
<path opacity="0.1" d="M28.6134 0.784994C36.8168 0.784994 43.3718 2.93166 48.2784 7.22499C53.2618 11.5183 55.7534 17.575 55.7534 25.395C55.7534 32.6017 53.3768 38.2367 48.6234 42.3C43.9468 46.2867 37.7368 48.3183 29.9934 48.395L29.4184 57.02H12.1684L11.5934 35.63H18.4934C24.3968 35.63 28.8818 34.9017 31.9484 33.445C35.0918 31.9883 36.6634 29.3433 36.6634 25.51C36.6634 22.8267 35.9351 20.7183 34.4784 19.185C33.0218 17.6517 30.9901 16.885 28.3834 16.885C25.6234 16.885 23.4768 17.69 21.9434 19.3C20.4101 20.8333 19.6434 22.9417 19.6434 25.625H1.12845C0.975114 20.9483 1.93345 16.7317 4.00345 12.975C6.15011 9.21833 9.29345 6.26667 13.4334 4.12C17.6501 1.89666 22.7101 0.784994 28.6134 0.784994ZM21.0234 86.92C17.5734 86.92 14.7368 85.9233 12.5134 83.93C10.3668 81.86 9.29345 79.33 9.29345 76.34C9.29345 73.2733 10.3668 70.705 12.5134 68.635C14.7368 66.565 17.5734 65.53 21.0234 65.53C24.3968 65.53 27.1568 66.565 29.3034 68.635C31.5268 70.705 32.6384 73.2733 32.6384 76.34C32.6384 79.33 31.5268 81.86 29.3034 83.93C27.1568 85.9233 24.3968 86.92 21.0234 86.92Z" fill="#630094"/>
</svg>
