<svg width="24" height="25" viewBox="0 0 24 25" fill="none" xmlns="http://www.w3.org/2000/svg">
<path fill-rule="evenodd" clip-rule="evenodd" d="M3.37752 5.93397C3 6.47184 3 8.07063 3 11.2682V12.8429C3 18.481 7.23896 21.217 9.89856 22.3788C10.62 22.694 10.9807 22.8516 12 22.8516C13.0193 22.8516 13.38 22.694 14.1014 22.3788C16.761 21.2171 21 18.481 21 12.8429V11.2682C21 8.07063 21 6.47184 20.6225 5.93397C20.245 5.3961 18.7417 4.88152 15.7351 3.85236L15.1623 3.65628C13.595 3.1198 12.8114 2.85156 12 2.85156C11.1886 2.85156 10.405 3.1198 8.83772 3.65628L8.26491 3.85235C5.25832 4.88152 3.75503 5.3961 3.37752 5.93397ZM13.5 15.8516C13.5 16.4038 13.0523 16.8516 12.5 16.8516H11.5C10.9477 16.8516 10.5 16.4038 10.5 15.8516V14.4502C9.6033 13.9315 9 12.962 9 11.8516C9 10.1947 10.3431 8.85156 12 8.85156C13.6569 8.85156 15 10.1947 15 11.8516C15 12.962 14.3967 13.9315 13.5 14.4502V15.8516Z" fill="#630094"/>
</svg>
