<svg width="20" height="20" viewBox="0 0 20 20" fill="none" xmlns="http://www.w3.org/2000/svg">
<path d="M11.5162 18.3333H8.48283C8.29277 18.3333 8.10842 18.2684 7.96033 18.1493C7.81225 18.0301 7.70934 17.8639 7.66866 17.6783L7.3295 16.1083C6.87705 15.91 6.44803 15.6621 6.05033 15.3691L4.5195 15.8566C4.3383 15.9144 4.14279 15.9085 3.96543 15.8398C3.78807 15.7711 3.63954 15.6439 3.5445 15.4791L2.0245 12.8533C1.93045 12.6884 1.89515 12.4965 1.92437 12.3089C1.95358 12.1214 2.04559 11.9493 2.18533 11.8208L3.37283 10.7375C3.31883 10.2467 3.31883 9.75153 3.37283 9.26079L2.18533 8.17996C2.04539 8.05144 1.95326 7.87919 1.92404 7.69145C1.89482 7.5037 1.93024 7.3116 2.0245 7.14663L3.54116 4.51913C3.63621 4.35439 3.78474 4.22712 3.9621 4.15845C4.13946 4.08978 4.33497 4.08384 4.51616 4.14163L6.047 4.62913C6.25033 4.47913 6.462 4.33913 6.68033 4.21246C6.89116 4.09413 7.10783 3.98663 7.3295 3.89079L7.6695 2.32246C7.70997 2.13679 7.81269 1.97053 7.96062 1.85125C8.10855 1.73197 8.2928 1.66683 8.48283 1.66663H11.5162C11.7062 1.66683 11.8904 1.73197 12.0384 1.85125C12.1863 1.97053 12.289 2.13679 12.3295 2.32246L12.6728 3.89163C12.9062 3.99496 13.1345 4.11079 13.3553 4.23996C13.5612 4.35913 13.7603 4.48996 13.952 4.63079L15.4837 4.14329C15.6647 4.08572 15.8601 4.09177 16.0373 4.16043C16.2144 4.22909 16.3628 4.35623 16.4578 4.52079L17.9745 7.14829C18.1678 7.48746 18.1012 7.91663 17.8137 8.18079L16.6262 9.26413C16.6802 9.75487 16.6802 10.2501 16.6262 10.7408L17.8137 11.8241C18.1012 12.0891 18.1678 12.5175 17.9745 12.8566L16.4578 15.4841C16.3628 15.6489 16.2143 15.7761 16.0369 15.8448C15.8595 15.9135 15.664 15.9194 15.4828 15.8616L13.952 15.3741C13.5546 15.6669 13.1259 15.9146 12.6737 16.1125L12.3295 17.6783C12.2889 17.8638 12.1861 18.0299 12.0382 18.149C11.8902 18.2681 11.7061 18.3331 11.5162 18.3333ZM9.99617 6.66663C9.11211 6.66663 8.26426 7.01782 7.63914 7.64294C7.01402 8.26806 6.66283 9.1159 6.66283 9.99996C6.66283 10.884 7.01402 11.7319 7.63914 12.357C8.26426 12.9821 9.11211 13.3333 9.99617 13.3333C10.8802 13.3333 11.7281 12.9821 12.3532 12.357C12.9783 11.7319 13.3295 10.884 13.3295 9.99996C13.3295 9.1159 12.9783 8.26806 12.3532 7.64294C11.7281 7.01782 10.8802 6.66663 9.99617 6.66663Z" fill="#630094"/>
</svg>
