<svg width="20" height="20" viewBox="0 0 20 20" fill="none" xmlns="http://www.w3.org/2000/svg">
<path d="M6.52995 4.00849C6.97539 3.23258 7.66809 2.62842 8.49733 2.29255C9.32657 1.95669 10.2445 1.90853 11.1043 2.15576C11.9641 2.40299 12.7163 2.93135 13.2405 3.65637C13.7646 4.3814 14.0306 5.26123 13.9959 6.15522C13.9612 7.04922 13.6278 7.90577 13.0489 8.58796C12.4701 9.27015 11.6793 9.73858 10.8028 9.91839C9.92642 10.0982 9.01502 9.97899 8.21433 9.57983C7.41364 9.18067 6.76988 8.5246 6.38595 7.71649C6.12945 7.90413 5.81976 8.00502 5.50195 8.00449H5.00195V8.25949C5.00195 8.44949 5.07395 8.62249 5.19195 8.75349C5.29279 8.6395 5.42596 8.55893 5.57373 8.52251C5.72149 8.48609 5.87685 8.49555 6.01911 8.54963C6.16136 8.60371 6.28377 8.69984 6.37003 8.82523C6.45629 8.95061 6.50231 9.0993 6.50195 9.25149C6.50188 9.356 6.47996 9.45935 6.4376 9.5549C6.39524 9.65045 6.33338 9.73609 6.25599 9.80633C6.17859 9.87657 6.08737 9.92986 5.98817 9.96278C5.88897 9.9957 5.78399 10.0075 5.67995 9.99749C5.22957 9.98168 4.80291 9.79164 4.48989 9.46743C4.17687 9.14322 4.00193 8.71015 4.00195 8.25949V4.50749C4.00195 4.37488 4.05463 4.2477 4.1484 4.15393C4.24217 4.06017 4.36934 4.00749 4.50195 4.00749H6.50195L6.52995 4.00849ZM5.00195 7.00449H5.50195C5.63456 7.00449 5.76174 6.95181 5.85551 6.85804C5.94928 6.76427 6.00195 6.6371 6.00195 6.50449V6.13449C5.99902 6.04518 5.99902 5.9558 6.00195 5.86649V5.00749H5.00195V7.00449Z" fill="#630094"/>
<path d="M3 13C3 11.887 3.903 11 5.009 11H15C15.5304 11 16.0391 11.2107 16.4142 11.5858C16.7893 11.9609 17 12.4696 17 13C17 14.691 16.167 15.966 14.865 16.797C13.583 17.614 11.855 18 10 18C8.145 18 6.417 17.614 5.135 16.797C3.833 15.967 3 14.69 3 13Z" fill="#630094"/>
</svg>
