<svg width="24" height="25" viewBox="0 0 24 25" fill="none" xmlns="http://www.w3.org/2000/svg">
<path d="M5.25 11.8688H20.25C20.4489 11.8688 20.6397 11.9478 20.7803 12.0884C20.921 12.2291 21 12.4199 21 12.6188C21 12.8177 20.921 13.0085 20.7803 13.1491C20.6397 13.2898 20.4489 13.3688 20.25 13.3688H5.25C5.05109 13.3688 4.86032 13.2898 4.71967 13.1491C4.57902 13.0085 4.5 12.8177 4.5 12.6188C4.5 12.4199 4.57902 12.2291 4.71967 12.0884C4.86032 11.9478 5.05109 11.8688 5.25 11.8688Z" fill="#4B4B4B"/>
<path d="M5.56038 12.6187L11.7809 18.8377C11.9217 18.9786 12.0008 19.1696 12.0008 19.3687C12.0008 19.5679 11.9217 19.7589 11.7809 19.8997C11.64 20.0406 11.449 20.1197 11.2499 20.1197C11.0507 20.1197 10.8597 20.0406 10.7189 19.8997L3.96888 13.1497C3.89903 13.0801 3.84362 12.9973 3.80581 12.9062C3.768 12.8151 3.74854 12.7174 3.74854 12.6187C3.74854 12.5201 3.768 12.4224 3.80581 12.3313C3.84362 12.2402 3.89903 12.1574 3.96888 12.0877L10.7189 5.33775C10.8597 5.19692 11.0507 5.1178 11.2499 5.1178C11.449 5.1178 11.64 5.19692 11.7809 5.33775C11.9217 5.47858 12.0008 5.66958 12.0008 5.86875C12.0008 6.06791 11.9217 6.25892 11.7809 6.39975L5.56038 12.6187Z" fill="#4B4B4B"/>
</svg>
