<svg width="9" height="16" viewBox="0 0 9 16" fill="none" xmlns="http://www.w3.org/2000/svg">
<path d="M7.18816 7.50095L0.96766 13.7199C0.82683 13.8608 0.747713 14.0518 0.747713 14.2509C0.747713 14.4501 0.82683 14.6411 0.96766 14.7819C1.10849 14.9228 1.2995 15.0019 1.49866 15.0019C1.69782 15.0019 1.88883 14.9228 2.02966 14.7819L8.77966 8.03195C8.8495 7.96228 8.90492 7.87951 8.94273 7.7884C8.98054 7.69728 9 7.5996 9 7.50095C9 7.4023 8.98054 7.30462 8.94273 7.2135C8.90492 7.12238 8.8495 7.03962 8.77966 6.96995L2.02966 0.219947C1.88883 0.0791173 1.69782 0 1.49866 0C1.2995 0 1.10849 0.0791173 0.96766 0.219947C0.82683 0.360777 0.747713 0.551784 0.747713 0.750947C0.747713 0.950111 0.82683 1.14112 0.96766 1.28195L7.18816 7.50095Z" fill="white"/>
</svg>
