<svg width="16" height="15" viewBox="0 0 16 15" fill="none" xmlns="http://www.w3.org/2000/svg">
<path d="M7.79167 3.48752C9.74667 3.48752 11.3333 5.07419 11.3333 7.02919C11.3333 7.39044 11.2625 7.73752 11.1633 8.06336L13.3308 10.2309C14.3154 9.35961 15.0946 8.26877 15.5833 7.02211C14.3579 3.91961 11.3333 1.71669 7.79167 1.71669C6.89208 1.71669 6.02792 1.85836 5.21333 2.12044L6.75042 3.65752C7.08333 3.55836 7.43042 3.48752 7.79167 3.48752ZM1.71417 0.618774L0.715417 1.62461L2.61375 3.52294C1.44523 4.43751 0.54276 5.64814 0 7.02919C1.22542 10.1388 4.25 12.3417 7.79167 12.3417C8.86833 12.3417 9.89542 12.1292 10.8446 11.7609L13.2742 14.1904L14.2729 13.1917L1.71417 0.618774ZM7.79167 10.5709C5.83667 10.5709 4.25 8.98419 4.25 7.02919C4.25 6.48377 4.3775 5.96669 4.59708 5.51336L5.70917 6.62544C5.68792 6.75294 5.66667 6.88752 5.66667 7.02919C5.66667 8.20502 6.61583 9.15419 7.79167 9.15419C7.93333 9.15419 8.06083 9.13294 8.19542 9.10461L9.3075 10.2167C8.84708 10.4434 8.33708 10.5709 7.79167 10.5709ZM9.89542 6.79544C9.84463 6.31687 9.63129 5.87017 9.29099 5.52987C8.95069 5.18957 8.50399 4.97623 8.02542 4.92544L9.89542 6.79544Z" fill="#D9D9D9"/>
</svg>
