<svg width="21" height="21" viewBox="0 0 21 21" fill="none" xmlns="http://www.w3.org/2000/svg">
<g clip-path="url(#clip0_64_9257)">
<path d="M20.7205 8.52978H19.915V8.48828H10.915V12.4883H16.5665C15.742 14.8168 13.5265 16.4883 10.915 16.4883C7.60154 16.4883 4.91504 13.8018 4.91504 10.4883C4.91504 7.17478 7.60154 4.48828 10.915 4.48828C12.4445 4.48828 13.836 5.06528 14.8955 6.00778L17.724 3.17928C15.938 1.51478 13.549 0.488281 10.915 0.488281C5.39254 0.488281 0.915039 4.96578 0.915039 10.4883C0.915039 16.0108 5.39254 20.4883 10.915 20.4883C16.4375 20.4883 20.915 16.0108 20.915 10.4883C20.915 9.81778 20.846 9.16328 20.7205 8.52978Z" fill="#FFC107"/>
<path d="M2.06787 5.83378L5.35337 8.24328C6.24237 6.04228 8.39537 4.48828 10.9149 4.48828C12.4444 4.48828 13.8359 5.06528 14.8954 6.00778L17.7239 3.17928C15.9379 1.51478 13.5489 0.488281 10.9149 0.488281C7.07387 0.488281 3.74287 2.65678 2.06787 5.83378Z" fill="#FF3D00"/>
<path d="M10.9152 20.4886C13.4982 20.4886 15.8452 19.5001 17.6197 17.8926L14.5247 15.2736C13.487 16.0628 12.2189 16.4897 10.9152 16.4886C8.3142 16.4886 6.1057 14.8301 5.2737 12.5156L2.0127 15.0281C3.6677 18.2666 7.0287 20.4886 10.9152 20.4886Z" fill="#4CAF50"/>
<path d="M20.7205 8.52978H19.915V8.48828H10.915V12.4883H16.5665C16.1721 13.5965 15.4617 14.5649 14.523 15.2738L14.5245 15.2728L17.6195 17.8918C17.4005 18.0908 20.915 15.4883 20.915 10.4883C20.915 9.81778 20.846 9.16328 20.7205 8.52978Z" fill="#1976D2"/>
</g>
<defs>
<clipPath id="clip0_64_9257">
<rect width="20" height="20" fill="white" transform="translate(0.915039 0.488281)"/>
</clipPath>
</defs>
</svg>
