<svg width="17" height="17" viewBox="0 0 17 17" fill="none" xmlns="http://www.w3.org/2000/svg">
<path d="M8.50006 2.70428C3.17084 2.70428 0.00756836 8.5 0.00756836 8.5C0.00756836 8.5 3.17084 14.2956 8.50006 14.2956C13.8293 14.2956 16.9926 8.5 16.9926 8.5C16.9926 8.5 13.8293 2.70428 8.50006 2.70428ZM8.49992 11.9579C6.59323 11.9579 5.04198 10.4067 5.04198 8.5C5.04198 6.59331 6.59323 5.04206 8.49992 5.04206C10.4066 5.04206 11.9579 6.59331 11.9579 8.5C11.9579 10.4067 10.4066 11.9579 8.49992 11.9579Z" fill="#D9D9D9"/>
<path d="M8.50002 10.6239C9.62738 10.6239 10.5413 9.70996 10.5413 8.58259C10.5413 7.45523 9.62738 6.54132 8.50002 6.54132C7.37265 6.54132 6.45874 7.45523 6.45874 8.58259C6.45874 9.70996 7.37265 10.6239 8.50002 10.6239Z" fill="#D9D9D9"/>
</svg>
