<svg width="44" height="29" viewBox="0 0 44 29" fill="none" xmlns="http://www.w3.org/2000/svg">
<path d="M43.1913 0.00488281H0.19043V29.0055H43.1913V0.00488281Z" fill="white"/>
<path d="M43.1913 11.6052H23.8407V0.00488281H19.5407V11.6052H0.19043V17.4052H19.5407V29.0055H23.8407V17.4052H43.1913" fill="#D02027"/>
<path d="M28.8577 19.3386H32.0626L43.1913 26.8438V29.0055M14.524 9.67174H11.3188L0.19043 2.16654V0.00488281L14.524 9.67174ZM14.524 19.3386H17.729L3.39565 29.0055H0.19043L14.524 19.3386ZM28.8574 9.67174H25.6524L39.9858 0.00488281H43.1913L28.8574 9.67174Z" fill="#D02027"/>
<path d="M0.19043 19.3386V25.7633L9.71636 19.3386M43.1913 19.3386V25.7633L33.6651 19.3386H43.1913ZM0.19043 9.67174V3.24824L9.71636 9.67174H0.19043ZM43.1904 9.67174V3.24824L33.6651 9.67174H43.1904ZM18.1071 29.0055V20.1642L4.99783 29.0055H18.1071ZM25.2738 29.0055V20.1642L38.3833 29.0055H25.2738ZM18.1074 0.00488281V8.84524L4.99812 0.00488281H18.1074ZM25.274 0.00488281V8.84524L38.3836 0.00488281H25.274Z" fill="#18325B"/>
</svg>
